<svg width="18" height="14" viewBox="0 0 18 14" fill="none" xmlns="http://www.w3.org/2000/svg">
<path d="M11.526 13.7901C11.526 13.7901 16.027 9.28512 17.781 7.53012C17.927 7.38412 18 7.19212 18 7.00012C18 6.80812 17.927 6.61712 17.781 6.47012C16.028 4.71612 11.526 0.212117 11.526 0.212117C11.382 0.0671172 11.192 -0.00488281 11.002 -0.00488281C10.809 -0.00488281 10.617 0.0691169 10.47 0.216117C10.177 0.508117 10.175 0.982117 10.466 1.27212L15.444 6.25012H0.751953C0.337953 6.25012 0.00195312 6.58612 0.00195312 7.00012C0.00195312 7.41412 0.337953 7.75012 0.751953 7.75012H15.444L10.465 12.7291C10.176 13.0181 10.179 13.4911 10.471 13.7831C10.619 13.9311 10.812 14.0051 11.004 14.0051C11.194 14.0051 11.382 13.9331 11.526 13.7901Z" fill="#8594AA"/>
</svg>
