<svg width="40" height="40" viewBox="0 0 40 40" fill="none" xmlns="http://www.w3.org/2000/svg">
<g clip-path="url(#clip0_159_542)">
<rect width="40" height="40" rx="20" fill="url(#paint0_linear_159_542)"/>
<path d="M15 7C13.895 7 13 7.896 13 9V27.678C12.998 29.891 16.503 31 20.006 31C23.504 31 27 29.894 27 27.678V9C27 7.896 26.105 7 25 7H15ZM20 29C19.447 29 19 28.552 19 28C19 27.448 19.447 27 20 27C20.553 27 21 27.448 21 28C21 28.552 20.553 29 20 29ZM25 25H15V11H25V25ZM22.25 20.25V21H23V20.25H22.75V20H22.5V20.25H22.25ZM22.75 20.5V20.75H22.5V20.5H22.75ZM17 21H19V19H17V21ZM17.25 19.25H18.75V20.75H17.25V19.25ZM22.25 20V19.75H22.5V20H22.25ZM17.5 19.5H18.5V20.5H17.5V19.5ZM19.5 18.75V19.25H19.25V18.75H19.5ZM20 16.75H20.25V17H20V16.75ZM20.25 16.5H20.5V16.75H20.25V16.5ZM20.5 17V16.75H20.75V17H20.5ZM20.5 16.5H20.75V15H20V15.25H19.25V15.5H20V15.75H20.5V16.5ZM20.25 15.5V15.25H20.5V15.5H20.25ZM18.5 16.5H17.5V15.5H18.5V16.5ZM20 16.5H19.75V16H19.25V15.75H20V16H20.25V16.25H20V16.5ZM19 15H17V17H19V15ZM18.75 16.75H17.25V15.25H18.75V16.75ZM19.5 16.75H19.25V16.5H19.75V17H19.5V16.75ZM18.75 17.5V17.75H18.5V17.5H18.75ZM22.5 19H23V19.75H22.75V19.5H22.25V19.75H22V19.5H21.75V19.25H22V19H22.25V19.25H22.5V19ZM21.5 19.5H21.25V19.75H21V19.5H20.75V19.25H21V19H20.5V18.75H20.25V19H20V19.25H19.5V19.5H19.25V21H20.5V20.75H20.25V20.25H20V20.75H19.5V20.5H19.75V20.25H19.5V20H20.25V19.75H20.75V20.25H20.5V20.5H20.75V21H21V20.5H21.25V20.75H21.5V20.5H21.75V20H22V19.75H21.5V19.5ZM21.25 20.25H21V20H21.25V20.25ZM22.75 18.75V18.25H23V18.75H22.75ZM20.5 20V20.25H20.25V20H20.5ZM21.75 20.75V20.5H22V21H21.5V20.75H21.75ZM21 15V17H23V15H21ZM22.75 16.75H21.25V15.25H22.75V16.75ZM22.5 16.5H21.5V15.5H22.5V16.5ZM22.75 17.5H23V18H22.75V18.25H22.25V17.25H22.5V17.75H22.75V17.5ZM21.75 19V18.25H22V19H21.75ZM18.5 17.25V17.5H18V17.75H18.25V18H17.5V17.75H17.75V17.5H17.25V17.75H17V17.25H18.5ZM18.25 18.25V18H18.5V18.75H18.25V18.5H18V18.75H17.75V18.5H17.5V18.75H17V18.5H17.25V18.25H18.25ZM17.25 18V18.25H17V18H17.25ZM22 17.5H21.75V17.25H22V17.5ZM18.75 18.5H19V18.75H18.75V18.5ZM22.5 19H22.25V18.75H22.5V19ZM21.25 19.25V19H21.5V19.25H21.25ZM21 19H21.25V18.25H21.75V18H22V17.75H21.75V17.5H21.25V17.25H21V17.5H20.75V17.25H20.5V17.5H20.25V17.25H20V17.5H19.75V17.75H19.5V17.5H19.75V17.25H18.75V17.5H19.25V17.75H18.75V18H19V18.5H19.25V18.25H19.75V18.75H20V17.75H20.25V18.25H21V18.5H20.5V18.75H21V19ZM21.25 17.75H21.5V18H21.25V17.75ZM20.75 18H20.5V17.75H20.75V18Z" fill="#152F56"/>
</g>
<defs>
<linearGradient id="paint0_linear_159_542" x1="20" y1="0" x2="20" y2="40" gradientUnits="userSpaceOnUse">
<stop stop-color="#D9E7FC"/>
<stop offset="1" stop-color="#A0C3F8"/>
</linearGradient>
<clipPath id="clip0_159_542">
<rect width="40" height="40" rx="20" fill="white"/>
</clipPath>
</defs>
</svg>
