<svg width="24" height="25" viewBox="0 0 24 25" fill="none" xmlns="http://www.w3.org/2000/svg">
<rect y="0.5" width="24" height="24" rx="12" fill="url(#paint0_linear_44_396)"/>
<path fill-rule="evenodd" clip-rule="evenodd" d="M10.9985 18C10.9985 17.4475 11.446 17 11.9985 17H12.9985C13.2635 17 13.518 17.1055 13.7055 17.293C13.893 17.4805 13.9985 17.735 13.9985 18V18.5H10.9985V18ZM14.9985 18C14.9985 17.4475 15.446 17 15.9985 17H16.9985C17.2635 17 17.518 17.1055 17.7055 17.293C17.893 17.4805 17.9985 17.735 17.9985 18V18.5H14.9985V18ZM9.37804 11C9.70254 11 10.0245 10.8935 10.224 10.782C10.6015 10.572 11.5715 9.9605 11.9665 9.72C12.0745 9.6545 12.214 9.6785 12.2935 9.7765L12.2975 9.782C12.38 9.884 12.3705 10.0315 12.276 10.122C11.965 10.4205 11.0545 11.286 10.591 11.7285C10.33 11.978 10.18 12.32 10.1645 12.6805C10.117 13.784 10.034 16.1365 9.99904 17.097C9.99054 17.322 9.80554 17.5 9.58054 17.5C9.35854 17.5 9.18704 17.3265 9.16204 17.106C9.10654 16.6155 8.99754 15.466 8.94904 15C8.92904 14.808 8.80904 14.6935 8.65654 14.6925C8.50454 14.692 8.39504 14.8055 8.38204 14.997C8.35154 15.4575 8.24954 16.621 8.21154 17.107C8.19454 17.328 8.01304 17.5 7.79154 17.5C7.56554 17.5 7.37904 17.3215 7.37004 17.096C7.32154 15.925 7.18554 12.614 7.18554 12.614L6.54204 13.779C6.47204 13.9055 6.31954 13.961 6.18454 13.909H6.18404C6.04454 13.855 5.96904 13.7035 6.00954 13.56L6.63154 11.3635C6.69254 11.1485 6.88904 11 7.11254 11H9.37804ZM12.4985 14.5C13.1195 14.5 13.6235 15.004 13.6235 15.625C13.6235 16.246 13.1195 16.75 12.4985 16.75C11.8775 16.75 11.3735 16.246 11.3735 15.625C11.3735 15.004 11.8775 14.5 12.4985 14.5ZM16.4985 14.5C17.1195 14.5 17.6235 15.004 17.6235 15.625C17.6235 16.246 17.1195 16.75 16.4985 16.75C15.8775 16.75 15.3735 16.246 15.3735 15.625C15.3735 15.004 15.8775 14.5 16.4985 14.5ZM17.9985 14H10.9985V13H14.4985V12.5H15.9985V13H16.9985V7.5H6.99854V9.678L5.99854 10.678V6.5H17.9985V14ZM14.4985 11.5H12.9985V11H14.4985V11.5ZM8.68554 8.5C9.30604 8.5 9.81054 9.004 9.81054 9.625C9.81054 10.246 9.30604 10.75 8.68554 10.75C8.06454 10.75 7.56054 10.246 7.56054 9.625C7.56054 9.004 8.06454 8.5 8.68554 8.5ZM15.9985 10.5H12.9985V10H15.9985V10.5ZM15.9985 9.5H12.9985V9H15.9985V9.5Z" fill="#152F56"/>
<defs>
<linearGradient id="paint0_linear_44_396" x1="12" y1="0.5" x2="12" y2="24.5" gradientUnits="userSpaceOnUse">
<stop stop-color="#D9E7FC"/>
<stop offset="1" stop-color="#A0C3F8"/>
</linearGradient>
</defs>
</svg>
