<svg width="100" height="94" viewBox="0 0 100 94" fill="none" xmlns="http://www.w3.org/2000/svg">
<rect x="4" width="92" height="76" rx="38" fill="url(#paint0_linear_285_786)"/>
<path fill-rule="evenodd" clip-rule="evenodd" d="M47.0833 56.2917C47.0833 54.404 48.6123 52.875 50.5 52.875H53.9167C54.8221 52.875 55.6916 53.2355 56.3323 53.8761C56.9729 54.5167 57.3333 55.3862 57.3333 56.2917V58H47.0833V56.2917ZM60.75 56.2917C60.75 54.404 62.279 52.875 64.1667 52.875H67.5833C68.4888 52.875 69.3583 53.2355 69.9989 53.8761C70.6395 54.5167 71 55.3862 71 56.2917V58H60.75V56.2917ZM41.5466 32.375C42.6553 32.375 43.7555 32.0111 44.4371 31.6302C45.7269 30.9127 49.0411 28.8234 50.3907 28.0017C50.7597 27.7779 51.2363 27.8599 51.5079 28.1947L51.5216 28.2135C51.8035 28.562 51.771 29.066 51.4481 29.3752C50.3855 30.395 47.2747 33.3522 45.691 34.864C44.7993 35.7165 44.2868 36.885 44.2338 38.1167C44.0715 41.887 43.788 49.9247 43.6684 53.2064C43.6393 53.9752 43.0073 54.5833 42.2385 54.5833C41.48 54.5833 40.894 53.9905 40.8086 53.2372C40.619 51.5613 40.2466 47.6338 40.0809 46.0417C40.0125 45.3857 39.6025 44.9945 39.0815 44.991C38.5622 44.9893 38.188 45.3771 38.1436 46.0314C38.0394 47.6048 37.6909 51.5801 37.5611 53.2406C37.503 53.9957 36.8829 54.5833 36.1261 54.5833C35.3539 54.5833 34.7167 53.9735 34.686 53.203C34.5203 49.2021 34.0556 37.8895 34.0556 37.8895L31.857 41.8699C31.6178 42.3021 31.0968 42.4918 30.6355 42.3141H30.6338C30.1572 42.1296 29.8992 41.612 30.0376 41.1217L32.1628 33.617C32.3712 32.8824 33.0425 32.375 33.8062 32.375H41.5466ZM52.2083 44.3333C54.3301 44.3333 56.0521 46.0553 56.0521 48.1771C56.0521 50.2988 54.3301 52.0208 52.2083 52.0208C50.0866 52.0208 48.3646 50.2988 48.3646 48.1771C48.3646 46.0553 50.0866 44.3333 52.2083 44.3333ZM65.875 44.3333C67.9967 44.3333 69.7188 46.0553 69.7188 48.1771C69.7188 50.2988 67.9967 52.0208 65.875 52.0208C63.7533 52.0208 62.0312 50.2988 62.0312 48.1771C62.0312 46.0553 63.7533 44.3333 65.875 44.3333ZM71 42.625H47.0833V39.2083H59.0417V37.5H64.1667V39.2083H67.5833V20.4167H33.4167V27.8582L30 31.2748V17H71V42.625ZM59.0417 34.0833H53.9167V32.375H59.0417V34.0833ZM39.1806 23.8333C41.3006 23.8333 43.0243 25.5553 43.0243 27.6771C43.0243 29.7988 41.3006 31.5208 39.1806 31.5208C37.0588 31.5208 35.3368 29.7988 35.3368 27.6771C35.3368 25.5553 37.0588 23.8333 39.1806 23.8333ZM64.1667 30.6667H53.9167V28.9583H64.1667V30.6667ZM64.1667 27.25H53.9167V25.5417H64.1667V27.25Z" fill="#152F56"/>
<g filter="url(#filter0_f_285_786)">
<ellipse cx="50" cy="83" rx="46" ry="7" fill="#D9D9D9" fill-opacity="0.42"/>
</g>
<defs>
<filter id="filter0_f_285_786" x="0" y="72" width="100" height="22" filterUnits="userSpaceOnUse" color-interpolation-filters="sRGB">
<feFlood flood-opacity="0" result="BackgroundImageFix"/>
<feBlend mode="normal" in="SourceGraphic" in2="BackgroundImageFix" result="shape"/>
<feGaussianBlur stdDeviation="2" result="effect1_foregroundBlur_285_786"/>
</filter>
<linearGradient id="paint0_linear_285_786" x1="50" y1="0" x2="50" y2="76" gradientUnits="userSpaceOnUse">
<stop stop-color="#D9E7FC"/>
<stop offset="1" stop-color="#A0C3F8"/>
</linearGradient>
</defs>
</svg>
