<svg width="49" height="44" viewBox="0 0 49 44" fill="none" xmlns="http://www.w3.org/2000/svg">
<path d="M17.9 29.898L24.5 23.298L31.1 29.898L32.398 28.6L25.798 22L32.398 15.4L31.1 14.102L24.5 20.702L17.9 14.102L16.602 15.4L23.202 22L16.602 28.6L17.9 29.898ZM24.5055 38.5C22.2248 38.5 20.0798 38.0673 18.0705 37.202C16.0624 36.3354 14.3152 35.1597 12.829 33.6747C11.3428 32.1897 10.1664 30.4443 9.29983 28.4387C8.43328 26.433 8 24.2886 8 22.0055C8 19.7224 8.43328 17.5774 9.29983 15.5705C10.1652 13.5624 11.3391 11.8152 12.8217 10.329C14.3042 8.84278 16.0502 7.66639 18.0595 6.79983C20.0688 5.93328 22.2138 5.5 24.4945 5.5C26.7752 5.5 28.9202 5.93328 30.9295 6.79983C32.9376 7.66517 34.6848 8.83972 36.171 10.3235C37.6572 11.8073 38.8336 13.5532 39.7002 15.5613C40.5667 17.5694 41 19.7138 41 21.9945C41 24.2752 40.5673 26.4202 39.702 28.4295C38.8367 30.4388 37.6609 32.186 36.1747 33.671C34.6884 35.156 32.9431 36.3324 30.9387 37.2002C28.9342 38.0679 26.7898 38.5012 24.5055 38.5ZM24.5 36.6667C28.5944 36.6667 32.0625 35.2458 34.9042 32.4042C37.7458 29.5625 39.1667 26.0944 39.1667 22C39.1667 17.9056 37.7458 14.4375 34.9042 11.5958C32.0625 8.75417 28.5944 7.33333 24.5 7.33333C20.4056 7.33333 16.9375 8.75417 14.0958 11.5958C11.2542 14.4375 9.83333 17.9056 9.83333 22C9.83333 26.0944 11.2542 29.5625 14.0958 32.4042C16.9375 35.2458 20.4056 36.6667 24.5 36.6667Z" fill="#152F56"/>
</svg>
