<svg width="24" height="25" viewBox="0 0 24 25" fill="none" xmlns="http://www.w3.org/2000/svg">
<rect y="0.5" width="24" height="24" rx="12" fill="url(#paint0_linear_44_380)"/>
<path fill-rule="evenodd" clip-rule="evenodd" d="M14.1659 18.3185H7.75931C7.75931 18.3185 8.13237 16.487 8.08104 15.6693C8.0602 15.3319 7.99921 14.9825 7.80658 14.689C7.47875 14.223 6.4668 12.9557 6.54863 11.2271C6.66248 8.80008 8.9339 7.13672 11.6953 7.13672C14.2864 7.13672 16.019 8.53497 16.7057 10.6233C16.8724 11.126 16.8638 11.3413 16.6289 11.8379L16.6259 11.844L17.5159 12.842C17.648 13.0195 17.7258 13.2106 17.7258 13.4193C17.7258 13.6742 17.6073 13.9062 17.4157 14.0711C17.2287 14.2319 17.0259 14.2817 16.7814 14.3703C16.7814 14.3703 16.4887 15.5779 16.3377 15.9036C15.9819 16.6691 15.3364 16.6766 14.8282 16.7651C14.6279 16.8038 14.5791 16.8271 14.4821 17.0824C14.3763 17.3578 14.2976 17.751 14.1659 18.3185ZM11.7049 8.06811C9.52703 8.09047 7.771 9.2553 7.57735 11.0911C7.47977 12.0187 7.81268 12.9482 8.34787 13.7492C8.65842 14.2151 9.01115 14.4909 9.09196 15.5546C9.13822 16.1664 9.06655 16.7828 8.96947 17.3867H13.3425C13.4142 17.0862 13.5204 16.6948 13.6917 16.4283C13.9199 16.0714 14.2493 15.9162 14.6706 15.844C15.0965 15.775 15.2998 15.8165 15.4274 15.4782C15.5352 15.2085 15.7385 14.4434 15.8498 13.6602C16.4612 13.5041 16.1608 13.5852 16.6991 13.3997C16.5944 13.2907 15.7242 12.3216 15.6597 12.1883C15.4889 11.8347 15.6363 11.6339 15.774 11.297C15.8178 11.18 15.8045 11.1307 15.7695 11.0114C15.2363 9.17143 13.7918 8.06811 11.7049 8.06811ZM11.9692 9.4659C12.0922 9.78459 12.1278 9.98867 12.3967 10.0907C12.666 10.1937 12.851 10.0702 13.1814 9.92623L13.6658 10.3698C13.5072 10.675 13.3746 10.8432 13.4859 11.0892V11.0897C13.5972 11.3357 13.8178 11.3678 14.1679 11.4815V12.1091C13.8218 12.2223 13.5972 12.2549 13.4859 12.5019C13.374 12.7484 13.5077 12.917 13.6658 13.2213L13.1814 13.6648C12.8475 13.519 12.666 13.3974 12.3982 13.4994C12.1283 13.6029 12.0922 13.8074 11.9692 14.1252H11.2841C11.1611 13.8065 11.1255 13.6024 10.8566 13.5008L10.8561 13.5004C10.5873 13.3974 10.4028 13.5204 10.0714 13.6648L9.58752 13.2213C9.74254 12.9217 9.87926 12.7502 9.76693 12.5014C9.65512 12.2549 9.43097 12.2223 9.08536 12.1091V11.4815C9.43148 11.3687 9.65512 11.3361 9.76693 11.0897C9.87875 10.8422 9.74559 10.6745 9.58752 10.3698L10.0714 9.92623C10.4053 10.0716 10.5873 10.1932 10.8561 10.0907C11.125 9.98867 11.1611 9.78273 11.2841 9.4659H11.9692ZM11.6267 12.5722C11.1591 12.5722 10.7794 12.2247 10.7794 11.7955C10.7794 11.3664 11.1591 11.0188 11.6267 11.0188C12.0943 11.0188 12.4734 11.3664 12.4734 11.7955C12.4734 12.2247 12.0943 12.5722 11.6267 12.5722Z" fill="#152F56"/>
<defs>
<linearGradient id="paint0_linear_44_380" x1="12" y1="0.5" x2="12" y2="24.5" gradientUnits="userSpaceOnUse">
<stop stop-color="#D9E7FC"/>
<stop offset="1" stop-color="#A0C3F8"/>
</linearGradient>
</defs>
</svg>
