<svg width="130" height="64" viewBox="0 0 130 64" fill="none" xmlns="http://www.w3.org/2000/svg">
<rect width="130" height="64" rx="8" fill="white"/>
<path d="M45.8 39C45.8 47.7261 38.7261 54.8 30 54.8C21.2739 54.8 14.2 47.7261 14.2 39C14.2 34.621 16.1044 27.1509 19.1171 20.7717C20.6225 17.5842 22.3986 14.6823 24.3408 12.5806C26.2865 10.4752 28.3728 9.2 30.5 9.2C32.6255 9.2 34.6486 10.4734 36.4996 12.577C38.3479 14.6775 39.9994 17.5783 41.3802 20.7658C44.143 27.1435 45.8 34.6161 45.8 39Z" fill="url(#paint0_linear_283_330)" stroke="#DBEA34" stroke-width="0.4"/>
<path d="M34.7391 42.1304C34.7391 44.8198 32.559 47 29.8696 47C27.1802 47 25 44.8198 25 42.1304C25 39.441 27.3324 33 30.0217 33C32.7111 33 34.7391 39.441 34.7391 42.1304Z" fill="url(#paint1_linear_283_330)"/>
<path d="M30 35L23 31.2V25.2L19 23L30 17L41 23V31H39V24.1L37 25.2V31.2L30 35ZM30 26.7L36.85 23L30 19.3L23.15 23L30 26.7ZM30 32.725L35 30.025V26.25L30 29L25 26.25V30.025L30 32.725Z" fill="#DBEA34"/>
<path d="M54.7901 37.5V25.8636H57.9492V34.9545H62.6538V37.5H54.7901ZM66.504 37.6364C65.9472 37.6364 65.4548 37.5455 65.0267 37.3636C64.6025 37.178 64.2692 36.8977 64.0267 36.5227C63.7843 36.1477 63.6631 35.6705 63.6631 35.0909C63.6631 34.6136 63.7446 34.2064 63.9074 33.8693C64.0703 33.5284 64.2976 33.25 64.5892 33.0341C64.8809 32.8182 65.2199 32.6534 65.6063 32.5398C65.9964 32.4261 66.4169 32.3523 66.8677 32.3182C67.3563 32.2803 67.7483 32.2348 68.0438 32.1818C68.343 32.125 68.5589 32.0473 68.6915 31.9489C68.8241 31.8466 68.8904 31.7121 68.8904 31.5455V31.5227C68.8904 31.2955 68.8033 31.1212 68.629 31C68.4548 30.8788 68.2313 30.8182 67.9586 30.8182C67.6593 30.8182 67.415 30.8845 67.2256 31.017C67.04 31.1458 66.9283 31.3447 66.8904 31.6136H64.004C64.0419 31.0833 64.2105 30.5947 64.5097 30.1477C64.8127 29.697 65.254 29.3371 65.8336 29.0682C66.4131 28.7955 67.1366 28.6591 68.004 28.6591C68.629 28.6591 69.1896 28.733 69.6858 28.8807C70.1821 29.0246 70.6044 29.2273 70.9529 29.4886C71.3014 29.7462 71.5665 30.0492 71.7483 30.3977C71.9339 30.7424 72.0267 31.1174 72.0267 31.5227V37.5H69.0949V36.2727H69.0267C68.8525 36.5985 68.6404 36.8617 68.3904 37.0625C68.1442 37.2633 67.862 37.4091 67.5438 37.5C67.2294 37.5909 66.8828 37.6364 66.504 37.6364ZM67.5267 35.6591C67.7654 35.6591 67.9889 35.6098 68.1972 35.5114C68.4093 35.4129 68.5817 35.2708 68.7142 35.0852C68.8468 34.8996 68.9131 34.6742 68.9131 34.4091V33.6818C68.8298 33.7159 68.7408 33.7481 68.6461 33.7784C68.5552 33.8087 68.4567 33.8371 68.3506 33.8636C68.2483 33.8902 68.1385 33.9148 68.0211 33.9375C67.9074 33.9602 67.7881 33.9811 67.6631 34C67.4207 34.0379 67.2218 34.1004 67.0665 34.1875C66.915 34.2708 66.8014 34.375 66.7256 34.5C66.6536 34.6212 66.6177 34.7576 66.6177 34.9091C66.6177 35.1515 66.7029 35.3371 66.8733 35.4659C67.0438 35.5947 67.2616 35.6591 67.5267 35.6591ZM76.7577 32.5909V37.5H73.6213V28.7727H76.5986V30.4318H76.6895C76.8789 29.8788 77.2122 29.4451 77.6895 29.1307C78.1706 28.8163 78.7312 28.6591 79.3713 28.6591C79.9888 28.6591 80.5247 28.8011 80.9793 29.0852C81.4376 29.3655 81.7918 29.7519 82.0418 30.2443C82.2956 30.7367 82.4206 31.2992 82.4168 31.9318V37.5H79.2804V32.5909C79.2842 32.1591 79.1744 31.8201 78.9509 31.5739C78.7312 31.3277 78.4244 31.2045 78.0304 31.2045C77.7728 31.2045 77.5475 31.2614 77.3543 31.375C77.1649 31.4848 77.0191 31.6439 76.9168 31.8523C76.8145 32.0568 76.7615 32.303 76.7577 32.5909ZM89.2656 28.7727V31.0455H83.5156V28.7727H89.2656ZM84.6293 26.6818H87.7656V34.6932C87.7656 34.8144 87.7865 34.9167 87.8281 35C87.8698 35.0795 87.9342 35.1402 88.0213 35.1818C88.1084 35.2197 88.2202 35.2386 88.3565 35.2386C88.4512 35.2386 88.5611 35.2273 88.6861 35.2045C88.8149 35.1818 88.9096 35.1629 88.9702 35.1477L89.4247 37.3523C89.2846 37.3939 89.0838 37.4451 88.8224 37.5057C88.5649 37.5663 88.258 37.6061 87.902 37.625C87.1823 37.6629 86.5781 37.589 86.0895 37.4034C85.6009 37.214 85.2334 36.9167 84.9872 36.5114C84.741 36.1061 84.6217 35.5985 84.6293 34.9886V26.6818ZM94.7295 37.6591C93.7977 37.6591 92.9947 37.4811 92.3204 37.125C91.65 36.7652 91.1329 36.25 90.7693 35.5795C90.4094 34.9053 90.2295 34.0985 90.2295 33.1591C90.2295 32.2576 90.4113 31.4697 90.775 30.7955C91.1386 30.1212 91.6519 29.5966 92.3148 29.2216C92.9776 28.8466 93.7598 28.6591 94.6613 28.6591C95.3204 28.6591 95.917 28.7614 96.4511 28.9659C96.9852 29.1705 97.4416 29.4678 97.8204 29.858C98.1992 30.2443 98.4909 30.714 98.6954 31.267C98.9 31.8201 99.0023 32.4432 99.0023 33.1364V33.8636H91.2068V32.1364H96.1159C96.1121 31.8864 96.0477 31.6667 95.9227 31.4773C95.8015 31.2841 95.6367 31.1345 95.4284 31.0284C95.2238 30.9186 94.9909 30.8636 94.7295 30.8636C94.4757 30.8636 94.2428 30.9186 94.0307 31.0284C93.8185 31.1345 93.6481 31.2822 93.5193 31.4716C93.3943 31.661 93.328 31.8826 93.3204 32.1364V34C93.3204 34.2803 93.3791 34.5303 93.4966 34.75C93.614 34.9697 93.7826 35.142 94.0023 35.267C94.2219 35.392 94.4871 35.4545 94.7977 35.4545C95.0136 35.4545 95.2106 35.4242 95.3886 35.3636C95.5704 35.303 95.7257 35.2159 95.8545 35.1023C95.9833 34.9848 96.078 34.8447 96.1386 34.6818H99.0023C98.9038 35.2879 98.6708 35.8144 98.3034 36.2614C97.936 36.7045 97.4492 37.0492 96.8432 37.2955C96.2409 37.5379 95.5363 37.6591 94.7295 37.6591ZM100.378 37.5V28.7727H103.424V30.4318H103.514C103.674 29.8182 103.925 29.3693 104.27 29.0852C104.619 28.8011 105.026 28.6591 105.492 28.6591C105.628 28.6591 105.763 28.6705 105.895 28.6932C106.031 28.7121 106.162 28.7405 106.287 28.7784V31.4545C106.132 31.4015 105.941 31.3617 105.713 31.3352C105.486 31.3087 105.291 31.2955 105.128 31.2955C104.821 31.2955 104.545 31.3655 104.299 31.5057C104.056 31.642 103.865 31.8352 103.725 32.0852C103.585 32.3314 103.514 32.6212 103.514 32.9545V37.5H100.378ZM110.548 32.5909V37.5H107.412V28.7727H110.389V30.4318H110.48C110.669 29.8788 111.002 29.4451 111.48 29.1307C111.961 28.8163 112.521 28.6591 113.162 28.6591C113.779 28.6591 114.315 28.8011 114.77 29.0852C115.228 29.3655 115.582 29.7519 115.832 30.2443C116.086 30.7367 116.211 31.2992 116.207 31.9318V37.5H113.071V32.5909C113.074 32.1591 112.965 31.8201 112.741 31.5739C112.521 31.3277 112.215 31.2045 111.821 31.2045C111.563 31.2045 111.338 31.2614 111.145 31.375C110.955 31.4848 110.809 31.6439 110.707 31.8523C110.605 32.0568 110.552 32.303 110.548 32.5909Z" fill="#152F56"/>
<defs>
<linearGradient id="paint0_linear_283_330" x1="30" y1="55" x2="30" y2="9" gradientUnits="userSpaceOnUse">
<stop stop-color="#2E67BC"/>
<stop offset="1" stop-color="#152F56"/>
</linearGradient>
<linearGradient id="paint1_linear_283_330" x1="29.8696" y1="33" x2="29.8696" y2="47" gradientUnits="userSpaceOnUse">
<stop stop-color="#DBEA34"/>
<stop offset="1" stop-color="#F5F5F0"/>
</linearGradient>
</defs>
</svg>
