<svg width="24" height="24" viewBox="0 0 24 24" fill="none" xmlns="http://www.w3.org/2000/svg">
<path d="M12.0019 2.00488C17.5199 2.00488 21.9999 6.48488 21.9999 12.0019C21.9999 17.5199 17.5199 21.9999 12.0019 21.9999C6.48488 21.9999 2.00488 17.5199 2.00488 12.0019C2.00488 6.48488 6.48488 2.00488 12.0019 2.00488ZM12.0019 3.50488C7.31188 3.50488 3.50488 7.31188 3.50488 12.0019C3.50488 16.6919 7.31188 20.4999 12.0019 20.4999C16.6919 20.4999 20.4999 16.6919 20.4999 12.0019C20.4999 7.31188 16.6919 3.50488 12.0019 3.50488ZM12.0019 10.9299L14.7189 8.21188C14.8649 8.06588 15.0579 7.99288 15.2499 7.99288C15.6539 7.99288 15.9999 8.31788 15.9999 8.74288C15.9999 8.93588 15.9269 9.12688 15.7809 9.27388L13.0639 11.9909L15.7909 14.7189C15.9379 14.8659 16.0109 15.0579 16.0109 15.2499C16.0109 15.6769 15.6619 15.9999 15.2609 15.9999C15.0689 15.9999 14.8769 15.9269 14.7309 15.7809L12.0019 13.0529L9.27388 15.7809C9.12788 15.9269 8.93588 15.9999 8.74388 15.9999C8.34288 15.9999 7.99288 15.6769 7.99288 15.2499C7.99288 15.0579 8.06588 14.8659 8.21288 14.7189L10.9409 11.9909L8.21888 9.26888C8.07288 9.12188 7.99988 8.93088 7.99988 8.73788C7.99988 8.31288 8.34588 7.98888 8.74988 7.98888C8.94188 7.98888 9.13488 8.06188 9.28088 8.20788L12.0019 10.9299Z" fill="#152F56"/>
</svg>
