<svg width="24" height="24" viewBox="0 0 24 24" fill="none" xmlns="http://www.w3.org/2000/svg">
<path d="M3.58999 1.322L6.43399 0L10.475 7.89L7.74999 9.231C7.21199 10.49 9.90899 15.52 11.047 15.603C11.137 15.545 13.718 14.275 13.718 14.275L17.828 22.207C17.828 22.207 15.064 23.561 14.974 23.603C7.11299 27.194 -4.12701 5.345 3.58999 1.322ZM5.51999 2.596L4.49699 3.1C-0.797007 5.862 8.67399 24.285 14.145 21.786L15.116 21.312L12.845 16.929L11.819 17.429C8.65599 18.976 3.55699 9.21 6.76399 7.491L7.77099 6.994L5.51999 2.596ZM13.352 10.245L16.269 11.115C16.492 10.368 16.429 9.536 16.029 8.798C15.63 8.059 14.967 7.551 14.221 7.329L13.352 10.245ZM15.156 4.186C16.707 4.648 18.082 5.702 18.912 7.237C19.743 8.773 19.872 10.5 19.41 12.05L17.615 11.515C17.94 10.424 17.848 9.209 17.263 8.128C16.68 7.047 15.712 6.306 14.62 5.982L15.156 4.186ZM16.106 1C18.471 1.705 20.569 3.312 21.835 5.656C23.104 7.999 23.301 10.634 22.596 13L20.756 12.452C21.32 10.557 21.162 8.446 20.148 6.57C19.132 4.693 17.452 3.405 15.557 2.841L16.106 1Z" fill="#152F56"/>
</svg>
