<svg width="98" height="94" viewBox="0 0 98 94" fill="none" xmlns="http://www.w3.org/2000/svg">
<rect x="4.5" width="89" height="76" rx="38" fill="url(#paint0_linear_49_978)"/>
<path fill-rule="evenodd" clip-rule="evenodd" d="M35.4792 45.5938L37.3071 49.7068L41.4583 50.3311L38.4363 53.4993L39.1743 58L35.4792 55.8438L31.784 58L32.522 53.4993L29.5 50.3311L33.6513 49.7068L35.4792 45.5938ZM50 45.5938L51.8279 49.7068L55.9792 50.3311L52.9571 53.4993L53.6951 58L50 55.8438L46.3049 58L47.0429 53.4993L44.0208 50.3311L48.1721 49.7068L50 45.5938ZM64.5208 45.5938L66.3488 49.7068L70.5 50.3311L67.478 53.4993L68.216 58L64.5208 55.8438L60.8257 58L61.5637 53.4993L58.5417 50.3311L62.6929 49.7068L64.5208 45.5938ZM62.8245 39.3636H62.8074C62.845 30.2206 58.9705 34.1976 58.9705 26.922C58.9705 24.1135 60.6498 22.5909 62.8108 22.5909C66.0037 22.5909 68.2245 25.9212 65.2008 32.1495C64.2082 34.1976 66.2599 34.6822 68.4637 35.2375C70.3736 35.7184 70.5 36.7378 70.5 38.5008V43.0909H62.8245V39.3636ZM29.5 43.0909V38.5008C29.5 36.7378 29.6264 35.7184 31.5363 35.2375C33.7401 34.6822 35.7918 34.1976 34.7993 32.1495C31.7755 25.9212 33.9963 22.5909 37.1892 22.5909C39.3503 22.5909 41.0295 24.1135 41.0295 26.922C41.0295 34.1976 37.155 30.2206 37.1926 39.3636H37.2012V43.0909H29.5ZM39.75 43.0909V38.2026C39.75 35.8581 39.9208 34.5033 42.4628 33.8622C45.3397 33.1372 48.1755 32.4905 46.8105 29.7454C42.7686 21.6125 45.6591 17 49.9983 17C54.2537 17 57.2177 21.441 53.186 29.7454C51.8621 32.4738 54.5971 33.1223 57.5338 33.8622C60.0792 34.5033 60.2483 35.86 60.2483 38.21L60.25 43.0909H39.75Z" fill="#152F56"/>
<g filter="url(#filter0_f_49_978)">
<ellipse cx="49" cy="83" rx="44.5" ry="7" fill="#D9D9D9" fill-opacity="0.42"/>
</g>
<defs>
<filter id="filter0_f_49_978" x="0.5" y="72" width="97" height="22" filterUnits="userSpaceOnUse" color-interpolation-filters="sRGB">
<feFlood flood-opacity="0" result="BackgroundImageFix"/>
<feBlend mode="normal" in="SourceGraphic" in2="BackgroundImageFix" result="shape"/>
<feGaussianBlur stdDeviation="2" result="effect1_foregroundBlur_49_978"/>
</filter>
<linearGradient id="paint0_linear_49_978" x1="49" y1="0" x2="49" y2="76" gradientUnits="userSpaceOnUse">
<stop stop-color="#D9E7FC"/>
<stop offset="1" stop-color="#A0C3F8"/>
</linearGradient>
</defs>
</svg>
