<svg width="24" height="24" viewBox="0 0 24 24" fill="none" xmlns="http://www.w3.org/2000/svg">
<path d="M11.9945 2C17.5111 2 21.99 6.47888 21.99 11.9955C21.99 17.5111 17.5111 21.99 11.9945 21.99C6.47888 21.99 2 17.5111 2 11.9955C2 6.47888 6.47888 2 11.9945 2ZM11.9945 3.49962C7.30567 3.49962 3.49962 7.30667 3.49962 11.9955C3.49962 16.6843 7.30567 20.4904 11.9945 20.4904C16.6833 20.4904 20.4904 16.6843 20.4904 11.9955C20.4904 7.30667 16.6833 3.49962 11.9945 3.49962ZM11.2477 11.2477H7.74856C7.33467 11.2477 6.99875 11.5836 6.99875 11.9975C6.99875 12.4114 7.33467 12.7473 7.74856 12.7473H11.2477V16.2464C11.2477 16.6603 11.5836 16.9962 11.9975 16.9962C12.4114 16.9962 12.7473 16.6603 12.7473 16.2464V12.7473H16.2464C16.6603 12.7473 16.9962 12.4114 16.9962 11.9975C16.9962 11.5836 16.6603 11.2477 16.2464 11.2477H12.7473V7.74856C12.7473 7.33467 12.4114 6.99875 11.9975 6.99875C11.5836 6.99875 11.2477 7.33467 11.2477 7.74856V11.2477Z" fill="#152F56"/>
</svg>
