<svg width="40" height="40" viewBox="0 0 40 40" fill="none" xmlns="http://www.w3.org/2000/svg">
<g clip-path="url(#clip0_159_645)">
<rect width="40" height="40" rx="20" fill="url(#paint0_linear_159_645)"/>
<g clip-path="url(#clip1_159_645)">
<g clip-path="url(#clip2_159_645)">
<path fill-rule="evenodd" clip-rule="evenodd" d="M21.7134 30.3589L21.699 30.3612L21.6138 30.4015L21.5898 30.4061L21.573 30.4015L21.4878 30.36C21.475 30.3569 21.4654 30.3593 21.459 30.3669L21.4542 30.3785L21.4338 30.872L21.4398 30.895L21.4518 30.91L21.5766 30.9954L21.5946 31L21.609 30.9954L21.7338 30.91L21.7482 30.8916L21.753 30.872L21.7326 30.3796C21.7294 30.3673 21.723 30.3604 21.7134 30.3589ZM22.0302 30.2286L22.0134 30.2309L21.7926 30.3381L21.7806 30.3496L21.777 30.3623L21.7986 30.8581L21.8046 30.872L21.8142 30.8812L22.0554 30.9873C22.0706 30.9911 22.0822 30.9881 22.0902 30.9781L22.095 30.9619L22.0542 30.2539C22.0502 30.2393 22.0422 30.2309 22.0302 30.2286ZM21.1722 30.2309C21.1669 30.2278 21.1606 30.2268 21.1546 30.2281C21.1485 30.2294 21.1432 30.2329 21.1398 30.2378L21.1326 30.2539L21.0918 30.9619C21.0926 30.9758 21.0994 30.985 21.1122 30.9896L21.1302 30.9873L21.3714 30.8801L21.3834 30.8708L21.387 30.8581L21.4086 30.3623L21.405 30.3485L21.393 30.337L21.1722 30.2309Z" fill="#152F56"/>
<path fill-rule="evenodd" clip-rule="evenodd" d="M21.0002 15C23.1039 15 25.0096 15.8267 26.4581 16.9987C27.4817 17.8267 28.341 18.8813 28.8618 20.02L28.9938 20.3333H31.8008C31.9921 20.3335 32.1806 20.3845 32.3506 20.482C32.5206 20.5796 32.6672 20.7209 32.7781 20.8942C32.8889 21.0674 32.9609 21.2677 32.9879 21.4781C33.015 21.6886 32.9964 21.9032 32.9336 22.104L32.8736 22.264L29.2734 30.264C29.185 30.46 29.0543 30.6287 28.8932 30.7552C28.732 30.8818 28.5452 30.9622 28.3494 30.9893L28.2006 31H13.7998C13.6023 31 13.4078 30.9459 13.2337 30.8424C13.0595 30.7389 12.911 30.5892 12.8014 30.4067L12.727 30.2627L9.12681 22.2627C9.04117 22.0725 8.99772 21.8623 9.00009 21.6496C9.00246 21.437 9.05058 21.228 9.14043 21.0403C9.23028 20.8525 9.35925 20.6913 9.51659 20.5702C9.67392 20.4491 9.85505 20.3715 10.0449 20.344L10.1997 20.3333H13.0054C13.5046 19.0747 14.4251 17.9027 15.5423 16.9987C16.9908 15.8267 18.8965 15 21.0002 15ZM29.8591 23H12.1414L14.5415 28.3333H27.4589L29.8591 23ZM21.0002 17.6667C19.5449 17.6806 18.1301 18.201 16.9548 19.1547C16.494 19.528 16.1136 19.9307 15.8147 20.3333H26.1857C25.8514 19.8891 25.4684 19.4931 25.0456 19.1547C23.8703 18.201 22.4555 17.6806 21.0002 17.6667ZM21.0002 7C21.955 7 22.8708 7.42143 23.5459 8.17157C24.2211 8.92172 24.6004 9.93913 24.6004 11C24.6004 12.0609 24.2211 13.0783 23.5459 13.8284C22.8708 14.5786 21.955 15 21.0002 15C20.0454 15 19.1297 14.5786 18.4545 13.8284C17.7793 13.0783 17.4 12.0609 17.4 11C17.4 9.93913 17.7793 8.92172 18.4545 8.17157C19.1297 7.42143 20.0454 7 21.0002 7ZM21.0002 9.66667C20.6819 9.66667 20.3767 9.80714 20.1516 10.0572C19.9266 10.3072 19.8001 10.6464 19.8001 11C19.8001 11.3536 19.9266 11.6928 20.1516 11.9428C20.3767 12.1929 20.6819 12.3333 21.0002 12.3333C21.3185 12.3333 21.6237 12.1929 21.8488 11.9428C22.0738 11.6928 22.2003 11.3536 22.2003 11C22.2003 10.6464 22.0738 10.3072 21.8488 10.0572C21.6237 9.80714 21.3185 9.66667 21.0002 9.66667Z" fill="#152F56"/>
</g>
</g>
</g>
<defs>
<linearGradient id="paint0_linear_159_645" x1="20" y1="0" x2="20" y2="40" gradientUnits="userSpaceOnUse">
<stop stop-color="#D9E7FC"/>
<stop offset="1" stop-color="#A0C3F8"/>
</linearGradient>
<clipPath id="clip0_159_645">
<rect width="40" height="40" rx="20" fill="white"/>
</clipPath>
<clipPath id="clip1_159_645">
<rect width="24" height="24" fill="white" transform="translate(9 7)"/>
</clipPath>
<clipPath id="clip2_159_645">
<rect width="24" height="24" fill="white" transform="translate(9 7)"/>
</clipPath>
</defs>
</svg>
