<svg width="103" height="46" viewBox="0 0 103 46" fill="none" xmlns="http://www.w3.org/2000/svg">
<path d="M31.8 30C31.8 38.7261 24.7261 45.8 16 45.8C7.2739 45.8 0.2 38.7261 0.2 30C0.2 25.621 2.10439 18.1509 5.11714 11.7717C6.62255 8.58416 8.39862 5.68232 10.3408 3.5806C12.2865 1.4752 14.3728 0.2 16.5 0.2C18.6255 0.2 20.6486 1.4734 22.4996 3.57698C24.3479 5.67746 25.9994 8.57826 27.3802 11.7658C30.143 18.1435 31.8 25.6161 31.8 30Z" fill="url(#paint0_linear_49_67)" stroke="#DBEA34" stroke-width="0.4"/>
<path d="M20.7391 33.1304C20.7391 35.8198 18.559 38 15.8696 38C13.1802 38 11 35.8198 11 33.1304C11 30.441 13.3324 24 16.0217 24C18.7111 24 20.7391 30.441 20.7391 33.1304Z" fill="url(#paint1_linear_49_67)"/>
<path d="M16 26L9 22.2V16.2L5 14L16 8L27 14V22H25V15.1L23 16.2V22.2L16 26ZM16 17.7L22.85 14L16 10.3L9.15 14L16 17.7ZM16 23.725L21 21.025V17.25L16 20L11 17.25V21.025L16 23.725Z" fill="#DBEA34"/>
<path d="M40.7901 28.5V16.8636H43.9492V25.9545H48.6538V28.5H40.7901ZM52.504 28.6364C51.9472 28.6364 51.4548 28.5455 51.0267 28.3636C50.6025 28.178 50.2692 27.8977 50.0267 27.5227C49.7843 27.1477 49.6631 26.6705 49.6631 26.0909C49.6631 25.6136 49.7446 25.2064 49.9074 24.8693C50.0703 24.5284 50.2976 24.25 50.5892 24.0341C50.8809 23.8182 51.2199 23.6534 51.6063 23.5398C51.9964 23.4261 52.4169 23.3523 52.8677 23.3182C53.3563 23.2803 53.7483 23.2348 54.0438 23.1818C54.343 23.125 54.5589 23.0473 54.6915 22.9489C54.8241 22.8466 54.8904 22.7121 54.8904 22.5455V22.5227C54.8904 22.2955 54.8033 22.1212 54.629 22C54.4548 21.8788 54.2313 21.8182 53.9586 21.8182C53.6593 21.8182 53.415 21.8845 53.2256 22.017C53.04 22.1458 52.9283 22.3447 52.8904 22.6136H50.004C50.0419 22.0833 50.2105 21.5947 50.5097 21.1477C50.8127 20.697 51.254 20.3371 51.8336 20.0682C52.4131 19.7955 53.1366 19.6591 54.004 19.6591C54.629 19.6591 55.1896 19.733 55.6858 19.8807C56.1821 20.0246 56.6044 20.2273 56.9529 20.4886C57.3014 20.7462 57.5665 21.0492 57.7483 21.3977C57.9339 21.7424 58.0267 22.1174 58.0267 22.5227V28.5H55.0949V27.2727H55.0267C54.8525 27.5985 54.6404 27.8617 54.3904 28.0625C54.1442 28.2633 53.862 28.4091 53.5438 28.5C53.2294 28.5909 52.8828 28.6364 52.504 28.6364ZM53.5267 26.6591C53.7654 26.6591 53.9889 26.6098 54.1972 26.5114C54.4093 26.4129 54.5817 26.2708 54.7142 26.0852C54.8468 25.8996 54.9131 25.6742 54.9131 25.4091V24.6818C54.8298 24.7159 54.7408 24.7481 54.6461 24.7784C54.5552 24.8087 54.4567 24.8371 54.3506 24.8636C54.2483 24.8902 54.1385 24.9148 54.0211 24.9375C53.9074 24.9602 53.7881 24.9811 53.6631 25C53.4207 25.0379 53.2218 25.1004 53.0665 25.1875C52.915 25.2708 52.8014 25.375 52.7256 25.5C52.6536 25.6212 52.6177 25.7576 52.6177 25.9091C52.6177 26.1515 52.7029 26.3371 52.8733 26.4659C53.0438 26.5947 53.2616 26.6591 53.5267 26.6591ZM62.7577 23.5909V28.5H59.6213V19.7727H62.5986V21.4318H62.6895C62.8789 20.8788 63.2122 20.4451 63.6895 20.1307C64.1706 19.8163 64.7312 19.6591 65.3713 19.6591C65.9888 19.6591 66.5247 19.8011 66.9793 20.0852C67.4376 20.3655 67.7918 20.7519 68.0418 21.2443C68.2956 21.7367 68.4206 22.2992 68.4168 22.9318V28.5H65.2804V23.5909C65.2842 23.1591 65.1744 22.8201 64.9509 22.5739C64.7312 22.3277 64.4244 22.2045 64.0304 22.2045C63.7728 22.2045 63.5475 22.2614 63.3543 22.375C63.1649 22.4848 63.0191 22.6439 62.9168 22.8523C62.8145 23.0568 62.7615 23.303 62.7577 23.5909ZM75.2656 19.7727V22.0455H69.5156V19.7727H75.2656ZM70.6293 17.6818H73.7656V25.6932C73.7656 25.8144 73.7865 25.9167 73.8281 26C73.8698 26.0795 73.9342 26.1402 74.0213 26.1818C74.1084 26.2197 74.2202 26.2386 74.3565 26.2386C74.4512 26.2386 74.5611 26.2273 74.6861 26.2045C74.8149 26.1818 74.9096 26.1629 74.9702 26.1477L75.4247 28.3523C75.2846 28.3939 75.0838 28.4451 74.8224 28.5057C74.5649 28.5663 74.258 28.6061 73.902 28.625C73.1823 28.6629 72.5781 28.589 72.0895 28.4034C71.6009 28.214 71.2334 27.9167 70.9872 27.5114C70.741 27.1061 70.6217 26.5985 70.6293 25.9886V17.6818ZM80.7295 28.6591C79.7977 28.6591 78.9947 28.4811 78.3204 28.125C77.65 27.7652 77.1329 27.25 76.7693 26.5795C76.4094 25.9053 76.2295 25.0985 76.2295 24.1591C76.2295 23.2576 76.4113 22.4697 76.775 21.7955C77.1386 21.1212 77.6519 20.5966 78.3148 20.2216C78.9776 19.8466 79.7598 19.6591 80.6613 19.6591C81.3204 19.6591 81.917 19.7614 82.4511 19.9659C82.9852 20.1705 83.4416 20.4678 83.8204 20.858C84.1992 21.2443 84.4909 21.714 84.6954 22.267C84.9 22.8201 85.0023 23.4432 85.0023 24.1364V24.8636H77.2068V23.1364H82.1159C82.1121 22.8864 82.0477 22.6667 81.9227 22.4773C81.8015 22.2841 81.6367 22.1345 81.4284 22.0284C81.2238 21.9186 80.9909 21.8636 80.7295 21.8636C80.4757 21.8636 80.2428 21.9186 80.0307 22.0284C79.8185 22.1345 79.6481 22.2822 79.5193 22.4716C79.3943 22.661 79.328 22.8826 79.3204 23.1364V25C79.3204 25.2803 79.3791 25.5303 79.4966 25.75C79.614 25.9697 79.7826 26.142 80.0023 26.267C80.2219 26.392 80.4871 26.4545 80.7977 26.4545C81.0136 26.4545 81.2106 26.4242 81.3886 26.3636C81.5704 26.303 81.7257 26.2159 81.8545 26.1023C81.9833 25.9848 82.078 25.8447 82.1386 25.6818H85.0023C84.9038 26.2879 84.6708 26.8144 84.3034 27.2614C83.936 27.7045 83.4492 28.0492 82.8432 28.2955C82.2409 28.5379 81.5363 28.6591 80.7295 28.6591ZM86.3781 28.5V19.7727H89.4235V21.4318H89.5144C89.6735 20.8182 89.9254 20.3693 90.2701 20.0852C90.6186 19.8011 91.0258 19.6591 91.4917 19.6591C91.6281 19.6591 91.7626 19.6705 91.8951 19.6932C92.0315 19.7121 92.1622 19.7405 92.2872 19.7784V22.4545C92.1319 22.4015 91.9406 22.3617 91.7133 22.3352C91.486 22.3087 91.291 22.2955 91.1281 22.2955C90.8213 22.2955 90.5447 22.3655 90.2985 22.5057C90.0561 22.642 89.8648 22.8352 89.7247 23.0852C89.5845 23.3314 89.5144 23.6212 89.5144 23.9545V28.5H86.3781ZM96.5479 23.5909V28.5H93.4116V19.7727H96.3889V21.4318H96.4798C96.6692 20.8788 97.0025 20.4451 97.4798 20.1307C97.9608 19.8163 98.5214 19.6591 99.1616 19.6591C99.779 19.6591 100.315 19.8011 100.77 20.0852C101.228 20.3655 101.582 20.7519 101.832 21.2443C102.086 21.7367 102.211 22.2992 102.207 22.9318V28.5H99.0707V23.5909C99.0745 23.1591 98.9646 22.8201 98.7411 22.5739C98.5214 22.3277 98.2146 22.2045 97.8207 22.2045C97.5631 22.2045 97.3377 22.2614 97.1445 22.375C96.9551 22.4848 96.8093 22.6439 96.707 22.8523C96.6048 23.0568 96.5517 23.303 96.5479 23.5909Z" fill="#152F56"/>
<defs>
<linearGradient id="paint0_linear_49_67" x1="16" y1="46" x2="16" y2="0" gradientUnits="userSpaceOnUse">
<stop stop-color="#2E67BC"/>
<stop offset="1" stop-color="#152F56"/>
</linearGradient>
<linearGradient id="paint1_linear_49_67" x1="15.8696" y1="24" x2="15.8696" y2="38" gradientUnits="userSpaceOnUse">
<stop stop-color="#DBEA34"/>
<stop offset="1" stop-color="#F5F5F0"/>
</linearGradient>
</defs>
</svg>
