<svg width="34" height="50" viewBox="0 0 34 50" fill="none" xmlns="http://www.w3.org/2000/svg">
<path d="M33.5818 32.3923C33.5818 41.6074 26.1115 49.0776 16.8965 49.0776C7.68146 49.0776 0.211206 41.6074 0.211206 32.3923C0.211206 27.7679 2.2223 19.8793 5.40385 13.1427C6.99361 9.77656 8.8692 6.71213 10.9202 4.49264C12.9749 2.26928 15.1781 0.922632 17.4245 0.922632C19.6691 0.922632 21.8056 2.26738 23.7603 4.48882C25.7122 6.707 27.4561 9.77032 28.9143 13.1365C31.8319 19.8715 33.5818 27.7628 33.5818 32.3923Z" fill="url(#paint0_linear_44_360)" stroke="#DBEA34" stroke-width="0.422412"/>
<path d="M21.9015 35.6972C21.9015 38.5373 19.5992 40.8396 16.7591 40.8396C13.919 40.8396 11.6167 38.5373 11.6167 35.6972C11.6167 32.8571 14.0797 26.0552 16.9198 26.0552C19.7599 26.0552 21.9015 32.8571 21.9015 35.6972Z" fill="url(#paint1_linear_44_360)"/>
<path d="M16.8933 28.1677L9.5011 24.1548V17.8186L5.27698 15.4954L16.8933 9.15918L28.5096 15.4954V23.9436H26.3976V16.657L24.2855 17.8186V24.1548L16.8933 28.1677ZM16.8933 19.4027L24.1271 15.4954L16.8933 11.588L9.6595 15.4954L16.8933 19.4027ZM16.8933 25.7653L22.1735 22.914V18.9275L16.8933 21.8315L11.6132 18.9275V22.914L16.8933 25.7653Z" fill="#DBEA34"/>
<defs>
<linearGradient id="paint0_linear_44_360" x1="16.8965" y1="49.2888" x2="16.8965" y2="0.711426" gradientUnits="userSpaceOnUse">
<stop stop-color="#2E67BC"/>
<stop offset="1" stop-color="#152F56"/>
</linearGradient>
<linearGradient id="paint1_linear_44_360" x1="16.7591" y1="26.0552" x2="16.7591" y2="40.8396" gradientUnits="userSpaceOnUse">
<stop stop-color="#DBEA34"/>
<stop offset="1" stop-color="#F5F5F0"/>
</linearGradient>
</defs>
</svg>
