<svg width="44" height="44" viewBox="0 0 44 44" fill="none" xmlns="http://www.w3.org/2000/svg">
<path d="M36.7583 20.1665H7.24167C6.27977 20.1665 5.5 20.9463 5.5 21.9082V22.0915C5.5 23.0534 6.27977 23.8332 7.24167 23.8332H36.7583C37.7202 23.8332 38.5 23.0534 38.5 22.0915V21.9082C38.5 20.9463 37.7202 20.1665 36.7583 20.1665Z" fill="#152F56"/>
<path d="M36.7583 29.3335H7.24167C6.27977 29.3335 5.5 30.1133 5.5 31.0752V31.2585C5.5 32.2204 6.27977 33.0002 7.24167 33.0002H36.7583C37.7202 33.0002 38.5 32.2204 38.5 31.2585V31.0752C38.5 30.1133 37.7202 29.3335 36.7583 29.3335Z" fill="#152F56"/>
<path d="M36.7583 11H7.24167C6.27977 11 5.5 11.7798 5.5 12.7417V12.925C5.5 13.8869 6.27977 14.6667 7.24167 14.6667H36.7583C37.7202 14.6667 38.5 13.8869 38.5 12.925V12.7417C38.5 11.7798 37.7202 11 36.7583 11Z" fill="#152F56"/>
</svg>
