<svg xmlns="http://www.w3.org/2000/svg" width="88" height="76" viewBox="0 0 88 76" fill="none">
  <rect width="88" height="76" rx="38" fill="url(#paint0_linear_1_802)"/>
  <path fill-rule="evenodd" clip-rule="evenodd" d="M29.9792 45.5938L31.8071 49.7068L35.9583 50.3311L32.9363 53.4993L33.6743 58L29.9792 55.8438L26.284 58L27.022 53.4993L24 50.3311L28.1513 49.7068L29.9792 45.5938ZM44.5 45.5938L46.3279 49.7068L50.4792 50.3311L47.4571 53.4993L48.1951 58L44.5 55.8438L40.8049 58L41.5429 53.4993L38.5208 50.3311L42.6721 49.7068L44.5 45.5938ZM59.0208 45.5938L60.8488 49.7068L65 50.3311L61.978 53.4993L62.716 58L59.0208 55.8438L55.3257 58L56.0637 53.4993L53.0417 50.3311L57.1929 49.7068L59.0208 45.5938ZM57.3245 39.3636H57.3074C57.345 30.2206 53.4705 34.1976 53.4705 26.922C53.4705 24.1135 55.1498 22.5909 57.3108 22.5909C60.5037 22.5909 62.7245 25.9212 59.7008 32.1495C58.7082 34.1976 60.7599 34.6822 62.9637 35.2375C64.8736 35.7184 65 36.7378 65 38.5008V43.0909H57.3245V39.3636ZM24 43.0909V38.5008C24 36.7378 24.1264 35.7184 26.0363 35.2375C28.2401 34.6822 30.2918 34.1976 29.2993 32.1495C26.2755 25.9212 28.4963 22.5909 31.6892 22.5909C33.8503 22.5909 35.5295 24.1135 35.5295 26.922C35.5295 34.1976 31.655 30.2206 31.6926 39.3636H31.7012V43.0909H24ZM34.25 43.0909V38.2026C34.25 35.8581 34.4208 34.5033 36.9628 33.8622C39.8397 33.1372 42.6755 32.4905 41.3105 29.7454C37.2686 21.6125 40.1591 17 44.4983 17C48.7537 17 51.7177 21.441 47.686 29.7454C46.3621 32.4738 49.0971 33.1223 52.0338 33.8622C54.5792 34.5033 54.7483 35.86 54.7483 38.21L54.75 43.0909H34.25Z" fill="#152F56"/>
  <defs>
    <linearGradient id="paint0_linear_1_802" x1="44" y1="0" x2="44" y2="76" gradientUnits="userSpaceOnUse">
      <stop stop-color="#D9E7FC"/>
      <stop offset="1" stop-color="#A0C3F8"/>
    </linearGradient>
  </defs>
</svg>