<svg width="40" height="40" viewBox="0 0 40 40" fill="none" xmlns="http://www.w3.org/2000/svg">
<g clip-path="url(#clip0_159_669)">
<rect width="40" height="40" rx="20" fill="url(#paint0_linear_159_669)"/>
<path d="M14.3436 10C13.7984 10.0038 13.2943 10.3819 13.1512 10.9478C13.0642 11.2965 13.1307 11.6505 13.3055 11.9346C13.019 12.0973 12.7942 12.3749 12.7069 12.7236C12.6202 13.0722 12.6859 13.4236 12.86 13.71C12.7132 13.7923 12.5845 13.9047 12.482 14.04C12.3795 14.1753 12.3053 14.3308 12.264 14.4967C12.1766 14.8442 12.2438 15.1993 12.4201 15.4819C12.1318 15.6461 11.9066 15.9211 11.8192 16.2724C11.7322 16.6199 11.799 16.9751 11.9757 17.2577C11.6874 17.4219 11.4622 17.6968 11.3748 18.0482C11.2874 18.3957 11.3546 18.7508 11.5309 19.0334C11.2426 19.1976 11.0174 19.4726 10.9304 19.8239C10.843 20.1714 10.9102 20.5266 11.0865 20.8092C10.7982 20.9734 10.573 21.2483 10.4856 21.5997C10.3979 21.951 10.4666 22.3061 10.6462 22.5926C10.4968 22.6749 10.3656 22.7879 10.2609 22.9246C10.1563 23.0613 10.0805 23.2187 10.0383 23.3869C9.87097 24.0552 10.2717 24.7464 10.9267 24.9182L10.9304 24.9106L12.1146 25.2237L12.0597 25.4414L21.8273 28L23.407 21.6913L22.5705 22.5009L19.2917 23.5129L19.8705 21.8899L14.2055 20.4082L14.3698 19.7437L20.102 21.2445L20.4643 20.2249L21.0356 19.675L14.7992 18.0405L14.9635 17.3761L21.6107 19.1174L23.0895 17.6892L15.393 15.6729L15.5573 15.0084L23.6572 17.1278L23.6534 17.1431L24.8298 16.0051L25.5132 13.2785L15.744 10.7183L15.5648 11.4309C15.6469 10.8077 15.2623 10.1986 14.6499 10.0393C14.549 10.0126 14.4445 9.99963 14.3436 10ZM14.3548 10.687C14.3996 10.687 14.4445 10.6943 14.4855 10.7053C14.788 10.7852 14.9673 11.0922 14.8889 11.403L15.5312 11.5711L15.1204 13.2059C15.2025 12.5815 14.8142 11.974 14.2055 11.8147L14.1831 11.809C13.8918 11.7196 13.7275 11.4214 13.8021 11.1189C13.8656 10.8665 14.0748 10.6989 14.3138 10.6874H14.3548V10.687ZM13.9104 12.4631C13.9441 12.4631 13.9814 12.4685 14.0187 12.4769L14.0411 12.4826C14.3436 12.5621 14.5229 12.8691 14.4445 13.1792L15.0868 13.3472L14.676 14.9893C14.7656 14.363 14.3772 13.7444 13.7648 13.5878C13.7387 13.5801 13.7163 13.5725 13.6939 13.5687C13.4324 13.4656 13.2868 13.183 13.3578 12.8958C13.4212 12.6296 13.6528 12.4586 13.9104 12.4647V12.4631ZM16.1473 12.6384L24.2509 14.764L24.0866 15.4285L15.983 13.3052L16.1473 12.6384ZM13.425 14.237H13.4735C13.4922 14.237 13.5071 14.237 13.5258 14.2408C13.5482 14.2484 13.5706 14.2523 13.593 14.2599L13.5968 14.2523C13.8992 14.3325 14.0785 14.638 14.0001 14.9511L14.6424 15.1191L14.2316 16.7612C14.3175 16.1388 13.9291 15.5239 13.3204 15.3635C13.0149 15.2833 12.8372 14.9778 12.9152 14.6647C12.9783 14.4127 13.186 14.2484 13.425 14.237ZM26.8202 15.0275L26.4393 15.3941L27.6193 16.6734L28.0002 16.3068L26.8202 15.0275ZM25.9501 15.8676L21.2298 20.4311L22.4061 21.7104L27.1301 17.1469L25.9501 15.8676ZM12.9832 16.0089C13.0385 16.0089 13.0952 16.0127 13.1524 16.028C13.4549 16.1082 13.6341 16.4137 13.5557 16.7269L14.198 16.8949L13.7872 18.537C13.8731 17.9107 13.4847 17.2997 12.8745 17.1393C12.5706 17.0591 12.3928 16.7536 12.4705 16.4404C12.534 16.1884 12.7438 16.0204 12.9832 16.0089ZM12.5384 17.7847C12.5937 17.7847 12.6505 17.7885 12.7076 17.8038C13.0116 17.884 13.1897 18.1895 13.1113 18.5026L13.7536 18.6706L13.3428 20.3089C13.4287 19.6864 13.0403 19.0754 12.4298 18.915C12.1258 18.8348 11.9484 18.5293 12.0261 18.2162C12.0892 17.9641 12.2991 17.7961 12.5384 17.7847ZM12.094 19.5604C12.1493 19.5604 12.2061 19.5642 12.2632 19.5795C12.5668 19.6597 12.7446 19.9652 12.6669 20.2784L13.3092 20.4426L12.9007 22.077C12.9813 21.4545 12.5926 20.8512 11.9854 20.6908C11.6814 20.6106 11.5036 20.3051 11.5813 19.9919C11.6448 19.7399 11.8547 19.5719 12.094 19.5604ZM20.8825 21.0574L20.3821 22.4589L21.7788 22.0274L20.8825 21.0574ZM11.6493 21.3362C11.7045 21.3362 11.7613 21.34 11.8184 21.3553C12.1224 21.4355 12.3002 21.741 12.2221 22.0541L12.8648 22.2183L12.454 23.8604C12.5325 23.2418 12.1441 22.6384 11.538 22.478L11.5417 22.4665C11.237 22.3863 11.0592 22.0808 11.1369 21.7677C11.2 21.5156 11.4099 21.3476 11.6493 21.3362ZM13.776 22.1114L21.8833 24.2308L21.719 24.8953L13.6117 22.7759L13.776 22.1114ZM11.2023 23.1234C11.2575 23.1234 11.3143 23.1272 11.3711 23.1425C11.675 23.2227 11.8528 23.5282 11.7751 23.8413L12.4174 24.0055L12.2796 24.5554L11.0876 24.2423V24.2499C10.7885 24.1659 10.6145 23.8642 10.6914 23.5549C10.7549 23.3029 10.9648 23.1348 11.2041 23.1234H11.2023Z" fill="#152F56"/>
</g>
<defs>
<linearGradient id="paint0_linear_159_669" x1="20" y1="0" x2="20" y2="40" gradientUnits="userSpaceOnUse">
<stop stop-color="#D9E7FC"/>
<stop offset="1" stop-color="#A0C3F8"/>
</linearGradient>
<clipPath id="clip0_159_669">
<rect width="40" height="40" rx="20" fill="white"/>
</clipPath>
</defs>
</svg>
