<svg width="24" height="25" viewBox="0 0 24 25" fill="none" xmlns="http://www.w3.org/2000/svg">
<rect y="0.5" width="24" height="23.747" rx="11.8735" fill="url(#paint0_linear_44_372)"/>
<path d="M11.9812 13.7445C11.8654 13.3986 11.9978 13.033 12.2989 12.8189C12.4504 12.7111 12.6239 12.6556 12.7963 12.6556C12.9656 12.6556 13.1342 12.7095 13.2778 12.82C13.1657 12.4442 12.8236 12.2184 12.4686 12.2184C12.3021 12.2184 12.1323 12.2681 11.9823 12.3754C11.5115 12.7111 11.5131 13.4098 11.9812 13.7445ZM13.3899 17.1789C13.7636 17.3043 14.9208 17.6246 16.2617 18.6238L18.7459 16.8522C18.1011 15.949 18.2789 15.317 17.6383 14.4192C17.3906 14.0712 17.1659 13.8406 16.8029 13.8406C16.7074 13.8406 16.6359 13.855 16.4971 13.8806L16.7223 14.1966C16.7789 14.2756 16.7602 14.3861 16.6812 14.4427C16.6017 14.4993 16.4917 14.4806 16.4352 14.4016L16.2339 14.1198C16.1757 14.0381 16.0818 13.9911 15.9836 13.9911C15.9473 13.9911 15.9515 13.9874 15.4615 14.1005L15.7354 14.4838C15.7914 14.5628 15.7733 14.6728 15.6943 14.7299C15.6153 14.7865 15.5053 14.7683 15.4482 14.6882L15.2112 14.3562C15.153 14.2746 15.0591 14.2276 14.9619 14.2276C14.9176 14.2276 14.9261 14.2249 14.4228 14.3525L14.7126 14.7576C14.7687 14.8366 14.75 14.9466 14.671 15.0037C14.5925 15.0603 14.482 15.0416 14.4255 14.9626L13.2522 13.3202C13.0979 13.1034 12.7963 13.0533 12.5796 13.2075C12.3629 13.3618 12.3122 13.6634 12.467 13.8801L14.1997 16.3088C13.7353 16.1369 13.0163 16.0617 12.8828 16.5437C12.8033 16.8309 13.0333 17.0593 13.3899 17.1789ZM10.7391 9.0157H12.8743V11.1984C12.743 11.1706 12.609 11.1508 12.4697 11.1508H12.4686C12.0709 11.1508 11.6882 11.2736 11.3621 11.5063C11.084 11.7054 10.8763 11.9766 10.7391 12.2809V9.0157ZM12.1067 17.5413L11.8067 17.5563C8.56395 17.5563 5.93506 14.9274 5.93506 11.6846C5.93506 8.44188 8.56395 5.81299 11.8067 5.81299C15.0494 5.81299 17.6783 8.44188 17.6783 11.6846C17.6783 12.1138 17.6292 12.5312 17.5417 12.9348C17.3309 12.8392 17.0885 12.773 16.8024 12.773C16.6775 12.773 16.5739 12.7858 16.4741 12.8018C16.5601 12.4426 16.6108 12.07 16.6108 11.6846C16.6108 9.03599 14.4559 6.88056 11.8067 6.88056C9.15752 6.88056 7.00263 9.03599 7.00263 11.6846C7.00263 14.3333 9.15752 16.4887 11.8067 16.4887H11.8126C11.7747 16.8367 11.8622 17.2147 12.1067 17.5413Z" fill="#152F56"/>
<defs>
<linearGradient id="paint0_linear_44_372" x1="12" y1="0.5" x2="12" y2="24.247" gradientUnits="userSpaceOnUse">
<stop stop-color="#D9E7FC"/>
<stop offset="1" stop-color="#A0C3F8"/>
</linearGradient>
</defs>
</svg>
