<svg width="17" height="16" viewBox="0 0 17 16" fill="none" xmlns="http://www.w3.org/2000/svg">
<path d="M7.84531 0.908594C7.94375 0.70625 8.15 0.578125 8.375 0.578125C8.60078 0.578125 8.80625 0.70625 8.90469 0.908594C9.66563 2.46953 10.975 5.15859 10.975 5.15859C10.975 5.15859 13.9523 5.56797 15.6797 5.80625C15.9945 5.84922 16.1875 6.11562 16.1875 6.38984C16.1875 6.53828 16.1312 6.68906 16.007 6.80859C14.7492 8.01016 12.5836 10.0828 12.5836 10.0828C12.5836 10.0828 13.1125 13.0258 13.4187 14.7328C13.4836 15.0938 13.2039 15.4219 12.8391 15.4219C12.7438 15.4219 12.6484 15.3992 12.5617 15.3523C11.0242 14.5336 8.375 13.125 8.375 13.125C8.375 13.125 5.72578 14.5336 4.18828 15.3523C4.10156 15.3992 4.00547 15.4219 3.91016 15.4219C3.54687 15.4219 3.26562 15.093 3.33125 14.7328C3.63828 13.0258 4.16719 10.0828 4.16719 10.0828C4.16719 10.0828 2.00078 8.01016 0.74375 6.80859C0.61875 6.68906 0.5625 6.53828 0.5625 6.39062C0.5625 6.11562 0.757031 5.84844 1.07109 5.80625C2.79844 5.56797 5.775 5.15859 5.775 5.15859C5.775 5.15859 7.08516 2.46953 7.84531 0.908594Z" fill="#DBEA34"/>
</svg>
