<svg width="24" height="25" viewBox="0 0 24 25" fill="none" xmlns="http://www.w3.org/2000/svg">
<rect y="0.5" width="24" height="24" rx="12" fill="url(#paint0_linear_44_405)"/>
<path fill-rule="evenodd" clip-rule="evenodd" d="M7.74854 14.8689L8.28354 16.0727L9.49854 16.2555L8.61404 17.1827L8.83003 18.5L7.74854 17.8689L6.66704 18.5L6.88304 17.1827L5.99854 16.2555L7.21354 16.0727L7.74854 14.8689ZM11.9985 14.8689L12.5335 16.0727L13.7485 16.2555L12.864 17.1827L13.08 18.5L11.9985 17.8689L10.917 18.5L11.133 17.1827L10.2485 16.2555L11.4635 16.0727L11.9985 14.8689ZM16.2485 14.8689L16.7835 16.0727L17.9985 16.2555L17.114 17.1827L17.33 18.5L16.2485 17.8689L15.167 18.5L15.383 17.1827L14.4985 16.2555L15.7135 16.0727L16.2485 14.8689ZM15.752 13.0455H15.747C15.758 10.3695 14.624 11.5335 14.624 9.404C14.624 8.582 15.1155 8.13636 15.748 8.13636C16.6825 8.13636 17.3325 9.11109 16.4475 10.934C16.157 11.5335 16.7575 11.6753 17.4025 11.8378C17.9615 11.9785 17.9985 12.2769 17.9985 12.7929V14.1364H15.752V13.0455ZM5.99854 14.1364V12.7929C5.99854 12.2769 6.03554 11.9785 6.59454 11.8378C7.23954 11.6753 7.84004 11.5335 7.54954 10.934C6.66454 9.11109 7.31454 8.13636 8.24904 8.13636C8.88154 8.13636 9.37304 8.582 9.37304 9.404C9.37304 11.5335 8.23904 10.3695 8.25004 13.0455H8.25254V14.1364H5.99854ZM8.99854 14.1364V12.7056C8.99854 12.0195 9.04854 11.6229 9.79254 11.4353C10.6345 11.2231 11.4645 11.0338 11.065 10.2304C9.88204 7.85 10.728 6.5 11.998 6.5C13.2435 6.5 14.111 7.79982 12.931 10.2304C12.5435 11.0289 13.344 11.2187 14.2035 11.4353C14.9485 11.6229 14.998 12.02 14.998 12.7078L14.9985 14.1364H8.99854Z" fill="#152F56"/>
<defs>
<linearGradient id="paint0_linear_44_405" x1="12" y1="0.5" x2="12" y2="24.5" gradientUnits="userSpaceOnUse">
<stop stop-color="#D9E7FC"/>
<stop offset="1" stop-color="#A0C3F8"/>
</linearGradient>
</defs>
</svg>
