<svg width="40" height="40" viewBox="0 0 40 40" fill="none" xmlns="http://www.w3.org/2000/svg">
<g clip-path="url(#clip0_159_605)">
<rect width="40" height="40" rx="20" fill="url(#paint0_linear_159_605)"/>
<path fill-rule="evenodd" clip-rule="evenodd" d="M12 11.5C12 11.1022 12.158 10.7206 12.4393 10.4393C12.7206 10.158 13.1022 10 13.5 10H28.5C28.8978 10 29.2794 10.158 29.5607 10.4393C29.842 10.7206 30 11.1022 30 11.5V26.5C30 26.8978 29.842 27.2794 29.5607 27.5607C29.2794 27.842 28.8978 28 28.5 28H13.5C13.1022 28 12.7206 27.842 12.4393 27.5607C12.158 27.2794 12 26.8978 12 26.5V11.5ZM14.717 12C14.5863 12 14.457 12.0053 14.329 12.016C14.2397 12.0229 14.1563 12.0632 14.0954 12.1287C14.0344 12.1943 14.0004 12.2805 14 12.37V26.145C14 26.341 14.16 26.5 14.3585 26.5H15.4335C15.5281 26.5004 15.619 26.4632 15.6862 26.3967C15.7534 26.3301 15.7915 26.2396 15.792 26.145V23.552L17.2605 24.1755C17.448 24.2555 17.6765 24.3395 17.915 24.3705C18.1575 24.402 18.433 24.3815 18.689 24.2265C18.8983 24.1005 19.0716 23.9226 19.192 23.71C19.3124 23.4974 19.376 23.2573 19.3765 23.013V21.9475C19.376 21.8529 19.3379 21.7624 19.2707 21.6958C19.2035 21.6293 19.1126 21.5921 19.018 21.5925L17.915 21.237C17.915 20.876 18.21 20.8785 18.565 20.881L18.66 20.8815H19.018C19.1126 20.8819 19.2035 20.8447 19.2707 20.7782C19.3379 20.7116 19.376 20.6211 19.3765 20.5265V19.816H19.7815C20.3545 19.816 20.696 19.1835 20.3785 18.711L19.3765 17.221V16.6185C19.3765 14.068 17.2905 12 14.7165 12M18.3005 17.5065C18.3002 17.5768 18.2861 17.6464 18.259 17.7112C18.2318 17.776 18.1921 17.8349 18.1422 17.8844C18.0923 17.9339 18.0331 17.9731 17.968 17.9997C17.903 18.0263 17.8333 18.0398 17.763 18.0395C17.6927 18.0398 17.623 18.0263 17.558 17.9997C17.4929 17.9731 17.4337 17.9339 17.3838 17.8844C17.3339 17.8349 17.2942 17.776 17.267 17.7112C17.2399 17.6464 17.2258 17.5768 17.2255 17.5065C17.2258 17.4362 17.2399 17.3666 17.267 17.3018C17.2942 17.237 17.3339 17.1781 17.3838 17.1286C17.4337 17.0791 17.4929 17.0399 17.558 17.0133C17.623 16.9867 17.6927 16.9732 17.763 16.9735C17.8333 16.9732 17.903 16.9867 17.968 17.0133C18.0331 17.0399 18.0923 17.0791 18.1422 17.1286C18.1921 17.1781 18.2318 17.237 18.259 17.3018C18.2861 17.3666 18.3002 17.4362 18.3005 17.5065ZM22.342 21C22.342 21.4465 22.1025 21.835 21.7475 22.042L22.2525 22.9055C22.5848 22.7107 22.8602 22.4324 23.0515 22.098C23.2427 21.7637 23.3431 21.3851 23.3425 21C23.343 20.6149 23.2426 20.2365 23.0514 19.9022C22.8601 19.568 22.5847 19.2897 22.2525 19.095L21.7475 19.958C21.9292 20.0645 22.0797 20.2168 22.1842 20.3996C22.2887 20.5824 22.3434 20.7894 22.343 21M24.448 21C24.448 19.9665 23.9985 19.107 23.392 18.6685L23.9785 17.8585C24.882 18.512 25.4485 19.6945 25.4485 21C25.4485 22.305 24.882 23.488 23.9785 24.142L23.392 23.332C23.9985 22.893 24.448 22.0335 24.448 21ZM26.554 21C26.554 22.5905 25.922 23.924 25.059 24.6085L25.6805 25.3915C26.8315 24.479 27.554 22.8275 27.554 21C27.554 19.1725 26.8315 17.521 25.6805 16.6085L25.0595 17.392C25.922 18.076 26.554 19.4095 26.554 21Z" fill="#152F56"/>
</g>
<defs>
<linearGradient id="paint0_linear_159_605" x1="20" y1="0" x2="20" y2="40" gradientUnits="userSpaceOnUse">
<stop stop-color="#D9E7FC"/>
<stop offset="1" stop-color="#A0C3F8"/>
</linearGradient>
<clipPath id="clip0_159_605">
<rect width="40" height="40" rx="20" fill="white"/>
</clipPath>
</defs>
</svg>
